<svg xmlns="http://www.w3.org/2000/svg" width="125.797" height="113.326" viewBox="0 0 125.797 113.326"><defs><style>.a{fill:#0ea3f0;}.b{fill:#38b8d6;}.c{fill:#1157af;}.d{fill:rgba(0,0,0,0);}.e,.f{fill:#38389a;stroke:#38389a;}.e{stroke-width:0.081px;}.f{stroke-width:0.022px;}</style></defs><g transform="translate(-332.665 -239.974)"><g transform="translate(332.631 240)"><path class="a" d="M66.8,112.6a.908.908,0,0,1-.7-.3L1.2,61.2a1.193,1.193,0,0,1-.5-.9,1.268,1.268,0,0,1,.4-.9L75.7.3a1.248,1.248,0,0,1,1.7.2,1.248,1.248,0,0,1-.2,1.7L3.8,60.3l63.7,50.3a1.248,1.248,0,0,1,.2,1.7A1.4,1.4,0,0,1,66.8,112.6Z"/><path class="b" d="M28.1,102.2a1.2,1.2,0,0,1-1.1-1.1L18.7,10.7a1.284,1.284,0,0,1,.4-1,1.314,1.314,0,0,1,1-.3L96.8,26a1.177,1.177,0,1,1-.5,2.3L21.2,12l8,87.6L96.4,91a1.146,1.146,0,0,1,1.3,1,1.2,1.2,0,0,1-1,1.3l-68.4,8.8C28.2,102.1,28.2,102.2,28.1,102.2Z"/><path class="c" d="M65.9,113.3h-.3L27.3,103a1.794,1.794,0,0,1-.7-.5L.2,60.7a1.183,1.183,0,0,1-.1-1l18-50.4a1.22,1.22,0,0,1,.9-.8L76.3,0a1.11,1.11,0,0,1,1.1.4l20.1,26a1.21,1.21,0,1,1-1.9,1.5L75.9,2.5,20,10.7,2.5,59.9l25.9,40.9,37.4,9.9L95.9,91a1.151,1.151,0,1,1,1.3,1.9l-30.6,20A.755.755,0,0,1,65.9,113.3Z"/></g><g transform="translate(338.049 115.974)"><g transform="translate(48.82 146.46)"><rect class="d" width="71.592" height="51.264"/><g transform="translate(2.934 11.879)"><path class="e" d="M3.32-3.782V-32.56H15.535a21.723,21.723,0,0,1,7.071.9h0a9.689,9.689,0,0,1,6.169,6.169h0a22.923,22.923,0,0,1,1.167,7.38h0a23.548,23.548,0,0,1-1.122,7.336h0a9.322,9.322,0,0,1-3.712,5.224h0a10.218,10.218,0,0,1-3.6,1.405,35.883,35.883,0,0,1-5.975.362H3.32ZM15.535-27.425H9.445V-8.917h6.09q4.013,0,5.559-1.768h0a8.43,8.43,0,0,0,1.538-3.155,15.506,15.506,0,0,0,.583-4.313h0a14.774,14.774,0,0,0-.7-4.658,7.263,7.263,0,0,0-1.812-3.147h0q-1.635-1.467-5.171-1.467Z" transform="translate(-3.32 32.56)"/><path class="e" d="M9.445-3.782H3.32V-32.56H9.445Z" transform="translate(27.575 32.56)"/><path class="e" d="M10.759-3.782v-12.6L.1-32.56H7.259l6.6,11.26,6.947-11.26H28.1l-11.216,16.4V-3.782Z" transform="translate(39.902 32.56)"/></g></g></g><g transform="translate(376.471 269.555)"><g transform="translate(13.02 39.06)"><rect class="d" width="68.971" height="22.431"/><g transform="translate(1.335 4.712)"><path class="f" d="M2.632,2.644H1.04V-9.32H2.632V-4.4H8.845V-9.32h1.579V2.644H8.845V-2.991H2.632Z" transform="translate(-1.04 9.538)"/><path class="f" d="M.63-3.136h0a6.475,6.475,0,0,1,1.6-4.66A5.4,5.4,0,0,1,6.355-9.49h0a5.729,5.729,0,0,1,2.991.8,5.164,5.164,0,0,1,2.028,2.208,7.189,7.189,0,0,1,.693,3.209h0a7.087,7.087,0,0,1-.732,3.261,4.954,4.954,0,0,1-2.08,2.169,5.905,5.905,0,0,1-2.9.745h0a5.663,5.663,0,0,1-3.03-.822A5.27,5.27,0,0,1,1.31-.145,6.8,6.8,0,0,1,.63-3.136Zm1.63.026h0A4.773,4.773,0,0,0,3.428.292,3.805,3.805,0,0,0,6.342,1.537h0A3.816,3.816,0,0,0,9.282.279a5.038,5.038,0,0,0,1.155-3.556h0A6.212,6.212,0,0,0,9.95-5.831,3.859,3.859,0,0,0,8.5-7.526a3.954,3.954,0,0,0-2.131-.59h0a4.074,4.074,0,0,0-2.9,1.155A5.165,5.165,0,0,0,2.26-3.11Z" transform="translate(12.731 9.49)"/><path class="f" d="M.63-3.136h0a6.475,6.475,0,0,1,1.6-4.66A5.4,5.4,0,0,1,6.355-9.49h0a5.729,5.729,0,0,1,2.991.8,5.164,5.164,0,0,1,2.028,2.208,7.189,7.189,0,0,1,.693,3.209h0a7.087,7.087,0,0,1-.732,3.261,4.954,4.954,0,0,1-2.08,2.169,5.905,5.905,0,0,1-2.9.745h0a5.663,5.663,0,0,1-3.03-.822A5.27,5.27,0,0,1,1.31-.145,6.8,6.8,0,0,1,.63-3.136Zm1.63.026h0A4.773,4.773,0,0,0,3.428.292,3.805,3.805,0,0,0,6.342,1.537h0A3.816,3.816,0,0,0,9.282.279a5.038,5.038,0,0,0,1.155-3.556h0A6.212,6.212,0,0,0,9.95-5.831,3.859,3.859,0,0,0,8.5-7.526a3.954,3.954,0,0,0-2.131-.59h0a4.074,4.074,0,0,0-2.9,1.155A5.165,5.165,0,0,0,2.26-3.11Z" transform="translate(27.778 9.49)"/><path class="f" d="M2.542,2.644H.95V-9.32H2.542v5.931L8.485-9.32h2.144L5.61-4.468l5.237,7.112H8.755L4.493-3.415,2.542-1.5Z" transform="translate(42.789 9.538)"/><path class="f" d="M.58-1.149h0l1.5-.141A3.308,3.308,0,0,0,2.57.186a2.7,2.7,0,0,0,1.207.937,4.679,4.679,0,0,0,1.836.347h0a4.409,4.409,0,0,0,1.6-.27A2.211,2.211,0,0,0,8.244.469,1.707,1.707,0,0,0,8.59-.558h0a1.551,1.551,0,0,0-.334-.988,2.483,2.483,0,0,0-1.078-.706h0Q6.7-2.433,5.047-2.83a11.359,11.359,0,0,1-2.311-.745h0A3.274,3.274,0,0,1,1.466-4.692a2.721,2.721,0,0,1-.424-1.489h0a3.031,3.031,0,0,1,.513-1.694,3.2,3.2,0,0,1,1.5-1.194,5.668,5.668,0,0,1,2.2-.411h0A6.057,6.057,0,0,1,7.6-9.056,3.461,3.461,0,0,1,9.168-7.786,3.656,3.656,0,0,1,9.746-5.9h0l-1.515.1A2.414,2.414,0,0,0,7.409-7.5a3.245,3.245,0,0,0-2.092-.578h0a3.339,3.339,0,0,0-2.092.526A1.582,1.582,0,0,0,2.57-6.284h0a1.345,1.345,0,0,0,.462,1.053h0a6.233,6.233,0,0,0,2.388.86,15.8,15.8,0,0,1,2.644.757h0a3.709,3.709,0,0,1,1.553,1.22,3.045,3.045,0,0,1,.488,1.707h0a3.292,3.292,0,0,1-.539,1.8A3.581,3.581,0,0,1,7.987,2.42a5.355,5.355,0,0,1-2.3.475h0A6.833,6.833,0,0,1,2.968,2.42,3.769,3.769,0,0,1,1.248.995,4.04,4.04,0,0,1,.58-1.149Z" transform="translate(55.402 9.493)"/></g></g></g></g></svg>